<?xml version="1.0" encoding="UTF-8" standalone="no"?>
<!-- Created with Inkscape (http://www.inkscape.org/) -->

<svg
   xmlns:dc="http://purl.org/dc/elements/1.1/"
   xmlns:cc="http://creativecommons.org/ns#"
   xmlns:rdf="http://www.w3.org/1999/02/22-rdf-syntax-ns#"
   xmlns:svg="http://www.w3.org/2000/svg"
   xmlns="http://www.w3.org/2000/svg"
   xmlns:sodipodi="http://sodipodi.sourceforge.net/DTD/sodipodi-0.dtd"
   xmlns:inkscape="http://www.inkscape.org/namespaces/inkscape"
   version="1.1"
   id="svg2"
   width="1250"
   height="1250"
   viewBox="0 0 1250 1250"
   sodipodi:docname="fingerprint.svg"
   inkscape:version="0.92.4 (5da689c313, 2019-01-14)"
   inkscape:export-filename="C:\Users\tek\Downloads\FDx SDK Pro for Windows v3.85_J1.12\FDx SDK Pro for Windows 3.85\DotNET\Samples\C#\Matching\Resources\fingerprint.png"
   inkscape:export-xdpi="96"
   inkscape:export-ydpi="96">
  <metadata
     id="metadata8">
    <rdf:RDF>
      <cc:Work
         rdf:about="">
        <dc:format>image/svg+xml</dc:format>
        <dc:type
           rdf:resource="http://purl.org/dc/dcmitype/StillImage" />
        <dc:title></dc:title>
      </cc:Work>
    </rdf:RDF>
  </metadata>
  <defs
     id="defs6" />
  <sodipodi:namedview
     pagecolor="#ffffff"
     bordercolor="#666666"
     borderopacity="1"
     objecttolerance="10"
     gridtolerance="10"
     guidetolerance="10"
     inkscape:pageopacity="0"
     inkscape:pageshadow="2"
     inkscape:window-width="1366"
     inkscape:window-height="705"
     id="namedview4"
     showgrid="false"
     fit-margin-top="0"
     fit-margin-left="0"
     fit-margin-right="0"
     fit-margin-bottom="0"
     inkscape:zoom="0.1109952"
     inkscape:cx="2398.2932"
     inkscape:cy="1353.203"
     inkscape:window-x="-8"
     inkscape:window-y="-8"
     inkscape:window-maximized="1"
     inkscape:current-layer="svg2" />
  <rect
     style="fill:#ffffff;stroke-width:0.63232905"
     id="rect20"
     width="1250"
     height="1250"
     x="0"
     y="0" />
  <path
     inkscape:connector-curvature="0"
     id="path14"
     d="m 946.37381,1224.7443 c -46.546,-5.6093 -86.4956,-19.4433 -121.2649,-41.992 l -9.7267,-6.3081 -16.5478,4.5427 c -48.6967,13.3679 -95.1809,20.5451 -149.1674,23.0311 -72.4625,3.3367 -150.0268,-7.7608 -223.7277,-32.0101 -21.542,-7.0879 -26.7489,-11.6163 -26.7489,-23.2633 0,-7.194 1.6609,-11.541 5.8538,-15.3207 8.6946,-7.8383 20.0656,-8.3043 39.6099,-1.6233 76.9855,26.3165 168.2833,34.8315 253.4515,23.6386 22.5216,-2.9598 75.11,-13.6294 77.6388,-15.752 0.3035,-0.2547 -2.8749,-4.7529 -7.0627,-9.9962 -7.4952,-9.3846 -20.938,-30.9257 -25.4058,-40.711 l -2.2817,-4.9977 -7.1537,0.702 c -40.3688,3.9612 -102.6587,3.8454 -135.3044,-0.2512 -71.9668,-9.0312 -120.7881,-21.653 -179.5627,-46.4224 -43.974,-18.532 -96.6511,-48.84733 -102.4994,-58.98773 -10.7702,-18.6743 16.4647,-38.4239 36.4687,-26.4457 2.3269,1.3934 10.8218,6.4801 18.8775,11.3038 49.0598,29.377 105.4426,52.09603 160.2673,64.57833 45.4703,10.3526 84.5586,14.8735 128.4312,14.8543 24.0216,-0.011 52.2551,-1.2707 63.4559,-2.8322 l 4.0683,-0.5672 0.073,-24.7589 c 0.067,-22.94893 1.8427,-38.48773 5.547,-48.55193 0.7523,-2.0439 0.1953,-2.1242 -9.8697,-1.4228 -79.4392,5.536 -141.6732,-1.9343 -212.103,-25.4601 -82.5819,-27.5849 -147.6563,-72.1755 -191.2039,-131.0175 -35.8544,-48.4469 -55.7857,-108.6742 -55.8911,-168.88897 -0.069,-39.26353 6.3429,-70.15601 21.616,-104.15031 15.6424,-34.81611 48.5692,-77.64416 83.9329,-109.17175 15.5674,-13.8787 19.5118,-16.03626 29.3174,-16.03626 15.3453,0 25.5937,8.40021 25.4338,20.84724 -0.091,7.05497 -1.9287,9.49745 -17.8289,23.69106 -41.9259,37.42592 -68.6676,75.41265 -81.8523,116.27165 -6.4591,20.01653 -8.9268,35.29575 -9.692,60.01146 -1.0444,33.73324 2.853,59.08801 14.0848,91.62948 29.6813,85.9947 108.6237,151.2495 221.9234,183.445 61.8228,17.5676 121.3108,21.5243 192.4135,12.7978 l 10.6646,-1.3089 3.2722,-5.42 c 5.6916,-9.4276 21.72,-28.6886 32.433,-38.9739 34.9257,-33.5316 85.0504,-57.7566 138.828,-67.095 12.3005,-2.1359 19.0129,-2.5296 43.9061,-2.5751 l 29.38579,-0.054 7.4345,-11.9517 c 24.701,-39.7093 48.2072,-95.47844 59.251,-140.57445 10.8487,-44.29967 9.8701,-104.0548 -2.5429,-155.26342 -2.8526,-11.76831 -2.0545,-16.02634 3.9843,-21.25598 12.3351,-10.68217 32.8353,-8.66668 40.5245,3.98424 2.9546,4.8612 7.9276,25.98244 11.8131,50.17278 3.0755,19.14708 3.5223,81.91962 0.7252,101.87379 -7.6267,54.40843 -26.767,108.25114 -59.481,167.32344 -5.5472,10.0166 -10.2098,18.6309 -10.3613,19.1428 -0.1513,0.5119 4.3014,2.3565 9.8952,4.099 76.9964,23.9842 138.6987,83.5951 155.7253,150.4466 7.0803,27.7994 7.4722,61.20653 1.0213,87.05103 -20.4916,82.0967 -95.0046,144.9335 -193.1589,162.891 -13.8003,2.5248 -19.6544,2.9333 -46.30929,3.2315 -16.7817,0.1878 -32.3428,0.1206 -34.5804,-0.149 z m 60.57969,-43.6264 c 73.5573,-10.5552 134.7511,-53.9163 157.6102,-111.6807 6.7554,-17.0705 9.1392,-27.9929 9.959,-45.6315 2.296,-49.39523 -20.3719,-95.27343 -63.7528,-129.03113 -52.5786,-40.9152 -128.75019,-54.7276 -196.89809,-35.704 -59.3681,16.5726 -106.8371,56.5255 -126.0556,106.0963 -12.5652,32.4096 -12.8087,72.28783 -0.6323,103.58173 22.8266,58.6661 83.5923,102.4746 156.4777,112.8117 16.6573,2.3624 45.1326,2.1634 63.29189,-0.4424 z m -40.59159,-33.8162 c -9.5961,-3.9704 -16.4683,-14.5047 -14.6702,-22.4878 1.1366,-5.0464 5.204,-10.1576 11.0733,-13.9152 4.332,-2.7735 6.3445,-3.262 13.4363,-3.262 6.8301,0 9.3625,0.5673 13.9788,3.1314 7.0538,3.9183 11.11549,10.3706 11.11549,17.6581 0,14.5281 -19.70629,25.1759 -34.93369,18.8755 z m 0.3534,-62.4473 c -6.2162,-2.8136 -10.2772,-6.3552 -13.032,-11.3653 -2.1459,-3.9027 -2.5078,-7.5796 -2.5333,-25.74 -0.034,-24.7173 1.0144,-30.6178 7.3639,-41.4171 6.6528,-11.31513 15.0614,-18.77443 29.6324,-26.28673 6.8592,-3.5364 13.87539,-7.7762 15.59149,-9.4218 15.8249,-15.1751 3.0278,-38.2008 -22.64979,-40.7534 -11.8848,-1.1815 -30.0874,5.2153 -35.8511,12.5988 -2.2361,2.8645 -4.2783,8.9371 -5.6949,16.9345 -0.8598,4.8539 -7.0113,11.393 -13.2755,14.112 -10.2384,4.444 -24.1722,1.114 -31.4241,-7.5099 -3.7013,-4.4015 -4.0581,-5.6248 -3.9554,-13.5603 0.2708,-20.9131 14.5233,-40.9033 37.8577,-53.0977 14.5156,-7.5857 24.2484,-9.9525 43.4393,-10.5636 19.507,-0.6211 28.40799,0.9228 45.23479,7.8461 20.164,8.2965 37.536,25.5497 42.7974,42.5047 3.0211,9.7356 2.7448,25.9687 -0.5945,34.9217 -6.89,18.4735 -18.4657,28.97573 -48.6567,44.14453 -8.5976,4.3196 -9.6693,7.8691 -9.6693,32.0223 0,18.3315 -0.2912,20.9897 -2.73899,25.0173 -5.5303,9.0989 -21.9957,14.0703 -31.8414,9.6139 z m -663.1294,28.8101 c -4.1892,-1.2263 -18.7353,-9.8962 -31.8682,-18.994 -41.6481,-28.852 -85.8216,-68.5301 -110.0766,-98.87453 -30.0026,-37.5347 -55.1074,-80.3182 -71.695797,-122.1836 -11.7944,-29.7663 -24.5131,-78.891 -24.7914,-95.755 -0.1111,-6.7292 0.3602,-8.2407 3.9031,-12.5208 8.4398,-10.1954 23.3983,-12.6351 35.109597,-5.7263 8.0693,4.7604 9.7942,8.2632 12.9192,26.237 10.6369,61.179 35.9073,118.7263 75.6768,172.3362 28.0119,37.7605 72.7973,78.30193 123.5349,111.82853 16.3515,10.8048 20.5127,15.7485 20.5127,24.3704 0,5.124 -3.4843,12.0007 -7.7029,15.2029 -6.3973,4.8558 -17.052,6.5588 -25.5214,4.0792 z m -56.0062,-193.55533 c -27.5687,-31.4037 -52.1579,-67.9333 -68.7661,-102.1583 -30.0709,-61.9683 -44.5965,-130.66333 -42.2401,-199.76372 2.344,-68.73877 17.067,-121.36733 49.6752,-177.56773 42.6481,-73.50436 112.7658,-134.27984 194.7228,-168.77874 66.6911,-28.07284 141.0986,-39.39414 225.7011,-34.341 136.0437,8.12564 246.266,53.7497 310.1661,128.38638 10.5808,12.35867 29.7269,39.28064 42.2198,59.36692 49.75409,79.9953 59.17669,149.1575 32.4879,238.46436 -9.9109,33.16453 -17.5836,49.57093 -31.8852,68.17973 -43.0344,55.9953 -134.9804,101.5977 -233.0156,115.5686 -38.5764,5.4975 -74.705,5.352 -112.1392,-0.4519 -119.0322,-18.4547 -191.0213,-80.5668 -213.1037,-183.86556 -3.3328,-15.59046 -3.944,-26.98037 -2.2294,-41.54629 5.0314,-42.74147 29.2852,-83.77192 67.9741,-114.99251 33.692,-27.18824 68.2604,-40.4058 110.3692,-42.20079 28.0581,-1.19606 57.4031,4.8145 92.803,19.00825 46.4684,18.63177 75.3524,43.33752 86.6703,74.13321 5.6343,15.33066 7.5552,53.18688 3.5557,70.07566 -4.6754,19.7432 -18.4065,35.99186 -37.0208,43.80829 -32.6045,13.69118 -59.6638,4.85658 -96.8479,-31.62004 -13.1444,-12.89429 -32.195,-29.02549 -34.2784,-29.02549 -2.7212,0 -5.934,5.74345 -8.1731,14.61088 -7.9329,31.41605 10.479,64.5855 43.2872,77.98299 14.8721,6.0731 33.4124,9.8192 52.389,10.5852 73.1424,2.9526 128.3428,-35.15555 145.3351,-100.33344 1.1193,-4.29346 1.7843,-14.86041 1.7907,-28.45636 0.013,-30.87705 -4.0043,-45.26199 -20.3529,-72.84831 -23.2378,-39.21102 -62.4307,-71.34157 -111.0791,-91.06329 -68.5911,-27.80635 -137.0322,-30.77115 -198.5771,-8.60215 -21.481,7.73768 -29.5496,7.48236 -39.5371,-1.25108 -5.2482,-4.58916 -6.7593,-7.62702 -6.7593,-13.58873 0,-10.23106 7.1095,-17.01083 24.4097,-23.2777 23.7499,-8.60325 46.075,-13.98802 70.7807,-17.07219 18.5027,-2.30984 60.9359,-1.74018 80.5764,1.0817 88.9757,12.78367 168.3483,57.0817 213.4178,119.10896 23.0954,31.7853 34.636,64.61595 36.1924,102.95977 2.2104,54.46132 -17.878,98.68291 -60.2983,132.73702 -28.9769,23.262 -63.2971,37.4742 -101.1719,41.8959 -15.2377,1.7789 -49.6084,1.5301 -63.0577,-0.4566 -34.8611,-5.1496 -59.9917,-15.0117 -81.3533,-31.9261 -16.1413,-12.7809 -27.4691,-29.50659 -33.5131,-49.48246 -3.8816,-12.82934 -3.5944,-40.12693 0.5689,-54.0644 7.0972,-23.75961 22.3058,-41.09089 41.0047,-46.72788 8.6945,-2.62105 23.3708,-2.34459 32.8041,0.61793 14.6153,4.58983 27.5022,13.98584 55.2832,40.30766 16.1921,15.34161 26.9679,23.44254 31.183,23.44254 3.6603,0 10.6134,-5.35958 13.0977,-10.09597 2.9049,-5.53803 3.8994,-27.01907 1.9586,-42.3032 -1.2453,-9.80631 -2.3728,-13.38456 -6.3779,-20.24048 -11.2403,-19.24077 -40.9608,-36.80938 -81.9251,-48.42815 -28.0829,-7.96522 -52.9417,-7.88227 -78.0087,0.26038 -49.8502,16.19295 -93.4409,68.98712 -96.4998,116.87403 -1.8981,29.71564 14.7917,74.4352 39.111,104.7958 8.6021,10.7389 32.2004,30.9648 44.7219,38.3308 40.6353,23.9045 102.5113,37.2578 156.6581,33.8081 21.0465,-1.3409 34.0761,-3.2513 58.1,-8.5188 44.321,-9.7177 90.5517,-28.8318 124.4758,-51.4646 21.3708,-14.2576 43.9786,-36.2756 53.5176,-52.1212 8.2029,-13.62624 21.1577,-53.09522 26.3391,-80.24697 2.7099,-14.20012 3.1391,-20.4781 3.0741,-44.96106 -0.073,-27.40299 -0.2335,-29.08839 -4.339,-45.53019 -8.0814,-32.36318 -22.6683,-63.38887 -46.6429,-99.2073 -23.607,-35.26939 -41.7241,-55.77949 -63.8963,-72.33608 -56.4174,-42.12866 -124.1777,-65.72244 -217.2889,-75.65883 -27.2481,-2.90782 -92.6459,-2.90618 -114.3147,0.002 -36.4662,4.89553 -68.6607,13.44735 -101.3041,26.90938 -99.7061,41.11895 -174.1516,120.77803 -204.8087,219.1523 -21.1872,67.987 -20.115,149.78273 2.9022,221.39055 16.7155,52.0032 44.934,102.1602 81.6121,145.0618 4.7861,5.5982 8.9675,10.7592 9.2919,11.4688 0.8038,1.7581 -35.6666,26.7284 -39.0381,26.7284 -0.6279,0 -5.301,-4.738 -10.3847,-10.5289 z M 57.077013,694.59093 c -12.3991,-2.89451 -16.2599,-8.10974 -21.9862,-29.69948 -11.9498,-45.05511 -13.3071,-90.90294 -3.9604,-133.78078 8.0974,-37.14648 24.0828,-74.99121 45.3641,-107.39729 9.6645,-14.7166 12.2187,-17.34938 19.6092,-20.21241 11.711997,-4.53709 23.976797,-1.87097 31.155597,6.77254 3.5702,4.29876 4.1017,5.92408 4.0937,12.5208 -0.01,5.76615 -0.7095,8.53446 -2.9351,11.56471 -9.8716,13.44097 -26.7105,45.39658 -34.188397,64.88052 -12.3924,32.28848 -15.7236,51.61668 -15.6939,91.06037 0.025,33.36723 1.1724,43.10731 8.1167,68.90308 4.064,15.09642 4.1748,19.75106 0.6101,25.61613 -5.315,8.74468 -17.5787,12.71475 -30.1854,9.77181 z M 1013.8957,389.84412 c -4.7428,-1.15096 -6.5842,-2.88921 -24.58909,-23.21126 -46.6287,-52.62959 -115.0375,-104.99457 -179.0719,-137.07429 -78.3046,-39.22881 -156.1477,-55.6916 -243.8017,-51.56083 -78.8062,3.71384 -140.7489,16.61748 -203.179,42.3255 -67.3293,27.72539 -122.9109,66.50459 -167.2858,116.715 -6.0861,6.88644 -12.9735,14.18063 -15.3054,16.20932 -10.3604,9.01312 -28.269,7.37091 -37.7609,-3.46272 -8.1926,-9.35072 -8.1536,-18.11233 0.1246,-27.97431 37.3044,-44.44174 84.9416,-83.60481 136.8279,-112.48778 86.6417,-48.22988 183.3402,-72.73817 296.3062,-75.09902 52.5935,-1.09913 91.2552,2.70514 136.9654,13.47712 109.2765,25.75198 219.482,91.48828 304.89459,181.86606 18.7562,19.84665 27.4554,30.74081 28.5859,35.79879 1.2993,5.81332 -1.3122,12.65138 -6.7671,17.71935 -7.8619,7.30433 -15.4985,9.29389 -25.9436,6.75907 z M 895.95001,162.60071 c -3.0468,-1.72161 -10.6449,-6.61497 -16.8846,-10.87418 -44.03,-30.05458 -105.1295,-56.469133 -163.3875,-70.635753 -63.61,-15.46806 -136.9497,-19.98818 -205.0782,-12.6395 -82.4507,8.89358 -164.8855,35.843893 -229.9475,75.176463 -11.0916,6.70528 -12.6523,7.305 -18.9853,7.29518 -14.6498,-0.0213 -26.5637,-9.46234 -26.5637,-21.04704 0,-8.44787 3.7356,-12.95013 17.5507,-21.15243 71.8226,-42.642403 161.3754,-70.883053 258.4142,-81.491483 27.3126,-2.98586 106.8442,-2.9731 134.2532,0.0213 107.2751,11.72063 198.6989,44.67933 277.4821,100.033513 8.2189,5.77475 11.2212,11.39979 10.4189,19.52082 -1.5088,15.27114 -22.4742,24.15458 -37.2723,15.79289 z"
     style="fill:#000000;fill-opacity:1;stroke-width:1.24240839" />
</svg>
