<?xml version="1.0" encoding="UTF-8" standalone="no"?>
<!-- Created with Inkscape (http://www.inkscape.org/) -->

<svg
   xmlns:dc="http://purl.org/dc/elements/1.1/"
   xmlns:cc="http://creativecommons.org/ns#"
   xmlns:rdf="http://www.w3.org/1999/02/22-rdf-syntax-ns#"
   xmlns:svg="http://www.w3.org/2000/svg"
   xmlns="http://www.w3.org/2000/svg"
   xmlns:sodipodi="http://sodipodi.sourceforge.net/DTD/sodipodi-0.dtd"
   xmlns:inkscape="http://www.inkscape.org/namespaces/inkscape"
   version="1.1"
   id="svg2"
   width="1250"
   height="1250"
   viewBox="0 0 1250 1250"
   sodipodi:docname="notFound.svg"
   inkscape:version="0.92.4 (5da689c313, 2019-01-14)"
   inkscape:export-filename="C:\Users\tek\Downloads\FDx SDK Pro for Windows v3.85_J1.12\FDx SDK Pro for Windows 3.85\DotNET\Samples\C#\Matching\Resources\notFound.png"
   inkscape:export-xdpi="96"
   inkscape:export-ydpi="96">
  <metadata
     id="metadata8">
    <rdf:RDF>
      <cc:Work
         rdf:about="">
        <dc:format>image/svg+xml</dc:format>
        <dc:type
           rdf:resource="http://purl.org/dc/dcmitype/StillImage" />
        <dc:title />
      </cc:Work>
    </rdf:RDF>
  </metadata>
  <defs
     id="defs6" />
  <sodipodi:namedview
     pagecolor="#ffffff"
     bordercolor="#666666"
     borderopacity="1"
     objecttolerance="10"
     gridtolerance="10"
     guidetolerance="10"
     inkscape:pageopacity="0"
     inkscape:pageshadow="2"
     inkscape:window-width="1366"
     inkscape:window-height="705"
     id="namedview4"
     showgrid="false"
     fit-margin-top="0"
     fit-margin-left="0"
     fit-margin-right="0"
     fit-margin-bottom="0"
     inkscape:zoom="0.18631578"
     inkscape:cx="959.26561"
     inkscape:cy="101.97742"
     inkscape:window-x="-8"
     inkscape:window-y="-8"
     inkscape:window-maximized="1"
     inkscape:current-layer="svg2" />
  <rect
     style="fill:#ffffff;stroke-width:1.6325109"
     id="rect3721"
     width="1250"
     height="1250"
     x="-6.6406251e-06"
     y="1.015625e-06" />
  <g
     id="g3715"
     transform="matrix(0.9282791,0,0,0.94948845,12.196033,23.580266)"
     style="fill:#000000">
    <path
       style="fill:#000000;fill-opacity:1;stroke-width:1.33333337"
       d="m 14.416667,1264.4226 c 0.9625,-0.3852 2.1125,-0.3378 2.555556,0.1052 0.443055,0.443 -0.344445,0.7581 -1.75,0.7002 -1.553257,-0.064 -1.8692,-0.3799 -0.805556,-0.8055 z m 975.275403,-0.013 c 1.29729,-0.338 3.09729,-0.3158 4,0.049 0.9027,0.3652 -0.15871,0.6418 -2.35871,0.6146 -2.2,-0.027 -2.93859,-0.326 -1.64129,-0.664 z m 40.00003,0 c 1.2973,-0.338 3.0973,-0.3158 4,0.049 0.9027,0.3652 -0.1587,0.6418 -2.3587,0.6146 -2.2,-0.027 -2.9386,-0.326 -1.6413,-0.664 z M 797.16327,1231 c -1.65849,-2.1147 -1.61133,-2.1619 0.50342,-0.5034 1.28333,1.0065 2.33333,2.0565 2.33333,2.3334 0,1.0973 -1.09492,0.391 -2.83675,-1.83 z m -8.62326,-7.3333 -2.53999,-3 3,2.54 c 2.81925,2.3869 3.60699,3.46 2.53999,3.46 -0.25302,0 -1.60302,-1.35 -3,-3 z m 29.9566,-30 c -1.6585,-2.1147 -1.61134,-2.1619 0.50341,-0.5034 1.28333,1.0065 2.33333,2.0565 2.33333,2.3333 0,1.0974 -1.09492,0.3911 -2.83674,-1.8299 z m -61.33334,-1.3333 c -1.65849,-2.1148 -1.61133,-2.1619 0.50342,-0.5034 1.28333,1.0064 2.33333,2.0564 2.33333,2.3333 0,1.0974 -1.09492,0.3911 -2.83675,-1.8299 z m 453.50343,-5 c 1.7223,-1.8334 3.4315,-3.3334 3.7982,-3.3334 0.3666,0 -0.7425,1.5 -2.4649,3.3334 -1.7223,1.8333 -3.4315,3.3333 -3.7981,3.3333 -0.3667,0 0.7425,-1.5 2.4648,-3.3333 z M 802.59491,1179 l -4.59489,-5 5,4.5949 c 4.65389,4.2768 5.61305,5.4051 4.59489,5.4051 -0.22281,0 -2.47281,-2.25 -5,-5 z M 1228,1170 c 1.7224,-1.8333 3.4315,-3.3333 3.7982,-3.3333 0.3667,0 -0.7425,1.5 -2.4648,3.3333 -1.7224,1.8334 -3.4315,3.3334 -3.7982,3.3334 -0.3667,0 0.7425,-1.5 2.4648,-3.3334 z m -441.50339,-8.3333 c -1.6585,-2.1147 -1.61134,-2.1619 0.50341,-0.5034 1.28333,1.0065 2.33333,2.0565 2.33333,2.3333 0,1.0974 -1.09492,0.3911 -2.83674,-1.8299 z M 125.54386,1152 c 0,-1.8333 0.30263,-2.5833 0.67252,-1.6666 0.36988,0.9166 0.36988,2.4166 0,3.3333 -0.36989,0.9167 -0.67252,0.1667 -0.67252,-1.6667 z m 770.13838,-7.6096 c 1.65854,-0.319 4.05854,-0.3069 5.33333,0.027 1.27479,0.3337 -0.0823,0.5947 -3.01555,0.5799 -2.93333,-0.015 -3.97633,-0.2879 -2.31778,-0.6068 z m 226.66666,0 c 1.6586,-0.319 4.0586,-0.3069 5.3333,0.027 1.2748,0.3337 -0.082,0.5947 -3.0155,0.5799 -2.9333,-0.015 -3.9763,-0.2879 -2.3178,-0.6068 z m -63.0225,-54.057 -47.993,-48.3334 48.3333,47.9931 c 44.9212,44.6049 48.933,48.6736 47.993,48.6736 -0.1871,0 -21.9371,-21.75 -48.3333,-48.3333 z M 1185.6427,1084 c 0,-2.5666 0.2744,-3.6166 0.6098,-2.3333 0.3353,1.2833 0.3353,3.3833 0,4.6667 -0.3354,1.2833 -0.6098,0.2333 -0.6098,-2.3334 z m -294.98061,-64.3333 48.65747,-48.99991 -47.99078,-48.33338 -47.99077,-48.33339 48.66205,48.33335 48.66207,48.33335 -49.32876,48.99998 -49.32876,49 z m -327.62185,2.0183 c 3.50547,-0.2756 8.90547,-0.2722 12,0.01 3.09455,0.2796 0.22644,0.5051 -6.37356,0.501 -6.6,0 -9.13189,-0.2328 -5.62644,-0.5084 z m 34.66667,0 c 3.50547,-0.2756 8.90547,-0.2722 12,0.01 3.09455,0.2796 0.22644,0.5051 -6.37356,0.501 -6.6,0 -9.13189,-0.2328 -5.62644,-0.5084 z m -68.69135,-1.2947 c 1.65855,-0.3189 4.05855,-0.3068 5.33333,0.027 1.27479,0.3337 -0.0823,0.5946 -3.01554,0.5798 -2.93334,-0.015 -3.97634,-0.2878 -2.31779,-0.6067 z m 109.31779,0 c 1.65,-0.3178 4.35,-0.3178 6,0 1.65,0.3178 0.3,0.5778 -3,0.5778 -3.3,0 -4.65,-0.26 -3,-0.5778 z m -131.30796,-1.3163 c 1.29729,-0.3381 3.09729,-0.3159 4,0.049 0.9027,0.3653 -0.15871,0.6419 -2.35871,0.6147 -2.2,-0.027 -2.93859,-0.326 -1.64129,-0.6641 z m 157.33333,0 c 1.2973,-0.3381 3.0973,-0.3159 4,0.049 0.90271,0.3653 -0.1587,0.6419 -2.3587,0.6147 -2.2,-0.027 -2.93859,-0.326 -1.6413,-0.6641 z m -177.33333,-1.3334 c 1.29729,-0.338 3.09729,-0.3158 4,0.05 0.9027,0.3652 -0.15871,0.6418 -2.35871,0.6147 -2.2,-0.027 -2.93859,-0.326 -1.64129,-0.6641 z m -17.33334,-1.3333 c 1.2973,-0.3381 3.0973,-0.3158 4,0.05 0.90271,0.3652 -0.1587,0.6418 -2.3587,0.6146 -2.2,-0.027 -2.93859,-0.326 -1.6413,-0.664 z m -16.69204,-1.293 c 0.91667,-0.3699 2.41667,-0.3699 3.33333,0 0.91667,0.3699 0.16667,0.6725 -1.66666,0.6725 -1.83334,0 -2.58334,-0.3026 -1.66667,-0.6725 z m 849.77199,-1.2281 c 0.064,-1.5532 0.3799,-1.8692 0.8055,-0.8055 0.3852,0.9625 0.3378,2.1125 -0.1052,2.5555 -0.443,0.4431 -0.7582,-0.3444 -0.7003,-1.75 z m -863.02199,-0.133 c 0.96249,-0.3852 2.11251,-0.3378 2.55556,0.1052 0.44305,0.443 -0.34445,0.7581 -1.75,0.7002 -1.55327,-0.064 -1.8692,-0.3799 -0.80556,-0.8055 z m -14.66667,-1.3334 c 0.9625,-0.3851 2.11251,-0.3378 2.55556,0.1052 0.44306,0.4431 -0.34445,0.7582 -1.75,0.7003 -1.55326,-0.064 -1.8692,-0.3799 -0.80556,-0.8055 z m -13.41666,-1.3055 c 0.91666,-0.3699 2.41666,-0.3699 3.33333,0 0.91667,0.3699 0.16667,0.6725 -1.66667,0.6725 -1.83333,0 -2.58333,-0.3026 -1.66666,-0.6725 z m 307.10527,-1.2281 c 0.064,-1.5532 0.37992,-1.8692 0.80555,-0.8055 0.38516,0.9625 0.3378,2.1125 -0.1052,2.5555 -0.44305,0.4431 -0.75819,-0.3444 -0.70029,-1.75 z m -319.02194,-0.133 c 0.96249,-0.3852 2.11251,-0.3378 2.55556,0.1052 0.44305,0.443 -0.34445,0.7581 -1.75,0.7002 -1.55327,-0.064 -1.8692,-0.3799 -0.80556,-0.8055 z m -13.33333,-1.3334 c 0.96249,-0.3851 2.1125,-0.3378 2.55556,0.1052 0.44305,0.4431 -0.34446,0.7582 -1.75,0.7003 -1.55327,-0.064 -1.8692,-0.3799 -0.80556,-0.8055 z m -10.66667,-1.3333 c 0.96249,-0.3852 2.11251,-0.3378 2.55556,0.1052 0.44305,0.443 -0.34445,0.7582 -1.75,0.7003 -1.55327,-0.064 -1.8692,-0.3799 -0.80556,-0.8056 z m -10.66667,-1.3333 c 0.9625,-0.3852 2.11251,-0.3378 2.55556,0.1052 0.44306,0.443 -0.34445,0.7581 -1.75,0.7002 -1.55326,-0.064 -1.8692,-0.3799 -0.80556,-0.8055 z m 939.02196,-2.5337 c 0.064,-1.5532 0.3799,-1.8692 0.8055,-0.8055 0.3852,0.9625 0.3378,2.1125 -0.1052,2.5555 -0.443,0.4431 -0.7581,-0.3444 -0.7002,-1.75 z m -959.02196,-0.133 c 0.9625,-0.3852 2.11251,-0.3378 2.55556,0.1052 0.44306,0.443 -0.34445,0.7581 -1.75,0.7003 -1.55326,-0.064 -1.8692,-0.38 -0.80556,-0.8056 z m -9.33333,-1.3334 c 0.96249,-0.3851 2.11249,-0.3378 2.55556,0.1052 0.44305,0.4431 -0.34445,0.7582 -1.75,0.7003 -1.55327,-0.064 -1.8692,-0.3799 -0.80556,-0.8055 z m 381.84327,-3.75577 c 0.0272,-2.2 0.326,-2.93859 0.66406,-1.6413 0.33805,1.2973 0.31582,3.0973 -0.0495,3.99997 -0.36524,0.9027 -0.64183,-0.1587 -0.61465,-2.35867 z m 588.07632,-12 c 0.015,-2.93334 0.2879,-3.97634 0.6068,-2.31779 0.3189,1.65855 0.3068,4.05855 -0.027,5.33333 -0.3337,1.27479 -0.5946,-0.0823 -0.5798,-3.01554 z M 716.42678,970.66669 c 0,-4.76666 0.242,-6.71666 0.53777,-4.33333 0.29576,2.38333 0.29576,6.28333 0,8.66667 -0.29577,2.38333 -0.53777,0.43333 -0.53777,-4.33334 z m 589.24282,-15.33333 c 0.015,-2.93333 0.2879,-3.97633 0.6068,-2.31779 0.3189,1.65855 0.3068,4.05855 -0.027,5.33334 -0.3337,1.27478 -0.5946,-0.0823 -0.5798,-3.01555 z m -588.07632,-12 c 0.0272,-2.2 0.326,-2.93859 0.66406,-1.6413 0.33805,1.2973 0.31582,3.0973 -0.0495,4 -0.36524,0.90271 -0.64183,-0.1587 -0.61465,-2.3587 z m 586.51202,-5.44444 c 0.064,-1.55327 0.3799,-1.8692 0.8055,-0.80556 0.3852,0.96249 0.3378,2.1125 -0.1052,2.55556 -0.443,0.44305 -0.7581,-0.34446 -0.7002,-1.75 z M 241.59327,932.66669 c 0.0272,-2.2 0.326,-2.93859 0.66406,-1.64129 0.33805,1.29729 0.31582,3.09729 -0.0495,4 -0.36524,0.9027 -0.64183,-0.15871 -0.61465,-2.35871 z m 477.17868,-1.44444 c 0.064,-1.55327 0.37992,-1.8692 0.80555,-0.80556 0.38516,0.96249 0.3378,2.11251 -0.1052,2.55556 -0.44305,0.44305 -0.75819,-0.34445 -0.70029,-1.75 z m 584.00005,-4 c 0.064,-1.55327 0.3799,-1.8692 0.8055,-0.80556 0.3852,0.96249 0.3378,2.11251 -0.1052,2.55556 -0.443,0.44305 -0.7582,-0.34445 -0.7003,-1.75 z M 1060,850.00002 c 26.7592,-26.76667 48.953,-48.66667 49.3197,-48.66667 0.3666,0 -21.2272,21.9 -47.9863,48.66667 -26.7592,26.76667 -48.953,48.66667 -49.3197,48.66667 -0.3666,0 21.2272,-21.9 47.9863,-48.66667 z m -818.40673,44 c 0.0272,-2.2 0.326,-2.93858 0.66406,-1.64129 0.33805,1.29729 0.31582,3.09729 -0.0495,4 -0.36524,0.90271 -0.64183,-0.15871 -0.61465,-2.35871 z m 1.17867,-16.1111 c 0.064,-1.55327 0.37992,-1.8692 0.80555,-0.80556 0.38516,0.96249 0.3378,2.1125 -0.1052,2.55556 -0.44307,0.44305 -0.75819,-0.34446 -0.7003,-1.75 z m 942.87076,-20.55556 c 0,-2.56667 0.2744,-3.61667 0.6098,-2.33334 0.3353,1.28334 0.3353,3.38334 0,4.66667 -0.3354,1.28333 -0.6098,0.23333 -0.6098,-2.33333 z M 862.00002,821.33335 c 10.24702,-10.26666 18.93095,-18.66666 19.29762,-18.66666 0.36666,0 -7.71727,8.4 -17.96428,18.66666 -10.24702,10.26667 -18.93095,18.66667 -19.29762,18.66667 -0.36667,0 7.71727,-8.4 17.96428,-18.66667 z m -78,-39.17008 c 0,-0.27686 1.05,-1.32686 2.33333,-2.33333 2.11475,-1.65849 2.16191,-1.61133 0.50342,0.50341 -1.74183,2.221 -2.83675,2.92731 -2.83675,1.82992 z m 446.49658,-8.49658 c -1.6585,-2.11475 -1.6113,-2.16191 0.5034,-0.50342 1.2834,1.00647 2.3334,2.05647 2.3334,2.33334 0,1.09738 -1.095,0.39108 -2.8368,-1.82992 z m -428.49658,-11 c 5.83225,-5.86667 10.90411,-10.66667 11.27077,-10.66667 0.36667,0 -4.10518,4.8 -9.93744,10.66667 -5.83225,5.86666 -10.9041,10.66666 -11.27077,10.66666 -0.36667,0 4.10519,-4.8 9.93744,-10.66666 z m 404.49658,-13 c -1.6585,-2.11475 -1.6113,-2.16191 0.5034,-0.50342 2.221,1.74183 2.9273,2.83675 1.83,2.83675 -0.2769,0 -1.3269,-1.05 -2.3334,-2.33333 z m -386.49658,-3.50342 c 0,-0.27686 1.05,-1.32686 2.33333,-2.33333 2.11475,-1.65849 2.16191,-1.61133 0.50342,0.50341 -1.74183,2.221 -2.83675,2.92731 -2.83675,1.82992 z M 771.9443,733.00002 c 3.26935,-3.48333 6.11935,-6.33333 6.33333,-6.33333 1.00118,0 -0.0573,1.1971 -5.94428,6.72238 l -6.33333,5.94428 z m 18.05572,-17 c 1.32732,-1.46667 2.71331,-2.66667 3.07997,-2.66667 0.36667,0 -0.41932,1.2 -1.74664,2.66667 -1.32732,1.46667 -2.7133,2.66667 -3.07997,2.66667 -0.36667,0 0.41932,-1.2 1.74664,-2.66667 z M 1047.75,677.75587 c 0.9625,-0.38516 2.1125,-0.3378 2.5556,0.1052 0.443,0.44305 -0.3445,0.75819 -1.75,0.70029 -1.5533,-0.064 -1.8692,-0.37992 -0.8056,-0.80554 z m -344.97805,-2.53363 c 0.064,-1.55326 0.37992,-1.8692 0.80555,-0.80556 0.38516,0.9625 0.3378,2.11251 -0.1052,2.55556 -0.44306,0.44306 -0.75819,-0.34445 -0.7003,-1.75 z m 283.56141,1.22807 c 0.91667,-0.36988 2.41667,-0.36988 3.33333,0 0.91667,0.36988 0.16667,0.67252 -1.66666,0.67252 -1.83334,0 -2.58334,-0.30264 -1.66667,-0.67252 z m 47.35874,-0.0409 c 1.2973,-0.33806 3.0973,-0.31583 4,0.0495 0.9027,0.36524 -0.1587,0.64183 -2.3587,0.61466 -2.2,-0.0272 -2.9386,-0.326 -1.6413,-0.66406 z M 475.02983,656.00002 c 0,-3.3 0.26002,-4.65 0.57782,-3 0.31782,1.65 0.31782,4.35 0,6 -0.3178,1.65 -0.57782,0.3 -0.57782,-3 z m 227.84737,2.66666 c 0,-1.83333 0.30264,-2.58333 0.67252,-1.66666 0.36988,0.91666 0.36988,2.41666 0,3.33333 -0.36988,0.91667 -0.67252,0.16667 -0.67252,-1.66667 z m 260.87282,-22.24414 c 0.9625,-0.38516 2.11251,-0.3378 2.55556,0.1052 0.44306,0.44305 -0.34445,0.75818 -1.75,0.70029 -1.55326,-0.064 -1.8692,-0.37992 -0.80556,-0.80555 z m 10.58334,-1.30556 c 0.91666,-0.36988 2.41666,-0.36988 3.33333,0 0.91667,0.36988 0.16667,0.67252 -1.66667,0.67252 -1.83333,0 -2.58333,-0.30264 -1.66666,-0.67252 z m 72.08334,-0.0277 c 0.9625,-0.38516 2.1125,-0.3378 2.5556,0.1052 0.443,0.44306 -0.3445,0.75819 -1.75,0.7003 -1.5533,-0.064 -1.8692,-0.37992 -0.8056,-0.80555 z m -55.41667,-1.34166 c 1.28333,-0.33536 3.38333,-0.33536 4.66666,0 1.28334,0.33537 0.23334,0.60977 -2.33333,0.60977 -2.56667,0 -3.61667,-0.2744 -2.33333,-0.60977 z m 36.68217,-0.0239 c 1.6586,-0.31892 4.0586,-0.30681 5.3334,0.0269 1.2748,0.33372 -0.082,0.59467 -3.0156,0.57987 -2.9333,-0.0148 -3.9763,-0.28785 -2.3178,-0.60677 z M 713.33335,622.24947 c 0,-0.22947 1.95,-2.17947 4.33333,-4.33333 l 4.33334,-3.91612 -3.91612,4.33333 c -3.65038,4.03928 -4.75055,4.9462 -4.75055,3.91612 z M 460.54,618.33335 l -2.53999,-3 3,2.53999 c 1.65,1.39698 3,2.74698 3,3 0,1.067 -1.07305,0.27926 -3.46001,-2.53999 z m 266.12669,-8.17008 c 0,-0.27687 1.05,-1.32687 2.33333,-2.33333 2.11475,-1.6585 2.16191,-1.61134 0.50341,0.50341 -1.74182,2.221 -2.83674,2.92731 -2.83674,1.82992 z M 446.4966,605.66668 c -1.6585,-2.11474 -1.61134,-2.1619 0.50341,-0.50341 2.221,1.74183 2.92731,2.83675 1.82992,2.83675 -0.27687,0 -1.32687,-1.05 -2.33333,-2.33334 z m -57.26418,-85.33333 -3.23241,-3.66667 3.66667,3.23241 c 3.42705,3.02119 4.27812,4.10092 3.23241,4.10092 -0.23883,0 -1.88883,-1.65 -3.66667,-3.66666 z m 421.53953,-46.44444 c 0.064,-1.55327 0.37992,-1.8692 0.80555,-0.80556 0.38516,0.96249 0.3378,2.1125 -0.1052,2.55556 -0.44305,0.44305 -0.75819,-0.34446 -0.70029,-1.75 z m 0,-18.66667 c 0.064,-1.55327 0.37992,-1.8692 0.80555,-0.80556 0.38516,0.96249 0.3378,2.11251 -0.1052,2.55556 -0.44305,0.44305 -0.75819,-0.34445 -0.70029,-1.75 z m -15.74212,-52.55556 c 0,-3.3 0.26003,-4.65 0.57783,-3 0.31781,1.65 0.31781,4.35 0,6 -0.3178,1.65 -0.57783,0.3 -0.57783,-3 z m -410.76989,-14 c 0.0272,-2.2 0.326,-2.93859 0.66406,-1.6413 0.33805,1.2973 0.31582,3.0973 -0.0495,4 -0.36524,0.90271 -0.64183,-0.1587 -0.61465,-2.3587 z m 409.33335,-8 c 0.0272,-2.2 0.326,-2.93859 0.66405,-1.6413 0.33805,1.2973 0.31583,3.0973 -0.0495,4 -0.36524,0.90271 -0.64182,-0.1587 -0.61465,-2.3587 z m -408.15468,-8.11111 c 0.064,-1.55327 0.37992,-1.8692 0.80555,-0.80556 0.38516,0.96249 0.3378,2.11251 -0.1052,2.55556 -0.44306,0.44305 -0.75819,-0.34445 -0.7003,-1.75 z m 406.77193,-5.88889 c 0,-1.83334 0.30264,-2.58334 0.67252,-1.66667 0.36988,0.91667 0.36988,2.41667 0,3.33333 -0.36988,0.91667 -0.67252,0.16667 -0.67252,-1.66666 z m -2.77192,-19.44444 c 0.064,-1.55327 0.37992,-1.8692 0.80555,-0.80556 0.38516,0.96249 0.3378,2.1125 -0.1052,2.55556 -0.44306,0.44305 -0.75819,-0.34446 -0.7003,-1.75 z m -46.94201,-114.8889 c -1.6585,-2.11475 -1.61134,-2.16191 0.50341,-0.50341 2.221,1.74182 2.92731,2.83674 1.82992,2.83674 -0.27687,0 -1.32687,-1.05 -2.33333,-2.33333 z M 454.66668,212.82993 c 0,-0.27687 1.05,-1.32687 2.33333,-2.33334 2.11475,-1.65849 2.16191,-1.61133 0.50342,0.50342 -1.74183,2.221 -2.83675,2.9273 -2.83675,1.82992 z m 90.41667,-41.74074 c 0.96249,-0.38516 2.1125,-0.3378 2.55556,0.1052 0.44305,0.44305 -0.34446,0.75819 -1.75,0.70029 -1.55327,-0.064 -1.8692,-0.37992 -0.80556,-0.80554 z m 10.66666,-1.33333 c 0.9625,-0.38516 2.11251,-0.3378 2.55556,0.1052 0.44306,0.44306 -0.34445,0.75818 -1.75,0.70029 -1.55326,-0.064 -1.8692,-0.37992 -0.80556,-0.80555 z m 56.00001,0 c 0.96249,-0.38516 2.1125,-0.3378 2.55556,0.1052 0.44305,0.44306 -0.34446,0.75818 -1.75,0.70029 -1.55327,-0.064 -1.8692,-0.37992 -0.80556,-0.80555 z m -39.41667,-1.37752 c 2.01666,-0.30551 5.31666,-0.30551 7.33333,0 2.01667,0.30549 0.36667,0.55545 -3.66667,0.55545 -4.03333,0 -5.68333,-0.24996 -3.66666,-0.55545 z m 18.66667,0 c 2.01666,-0.30551 5.31666,-0.30551 7.33333,0 2.01667,0.30549 0.36667,0.55545 -3.66667,0.55545 -4.03333,0 -5.68333,-0.24996 -3.66666,-0.55545 z m 462.66958,-47.71167 c 0.015,-2.93333 0.2879,-3.97634 0.6068,-2.31779 0.3189,1.65855 0.3068,4.05855 -0.027,5.33334 -0.3337,1.27478 -0.5946,-0.0822 -0.5798,-3.01555 z m -926.89767,-5.44444 c 0.064,-1.55326 0.37992,-1.8692 0.80556,-0.80556 0.38516,0.9625 0.33779,2.1125 -0.10527,2.55556 -0.44305,0.44305 -0.75819,-0.34445 -0.70029,-1.75 z M 1090.611,38.333334 c 5.5253,-5.88692 6.7224,-6.945459 6.7224,-5.944277 0,0.213981 -2.85,3.063981 -6.3334,6.333333 l -6.3333,5.944278 z M 238.41667,1.755848 c 0.9625,-0.3851608 2.1125,-0.3377924 2.55556,0.1052627 0.44306,0.4430556 -0.34445,0.7581872 -1.75,0.7002924 -1.55326,-0.063979 -1.8692,-0.3799204 -0.80556,-0.8055551 z m 926.66673,0 c 0.9625,-0.3851608 2.1125,-0.3377924 2.5555,0.1052627 0.4431,0.4430556 -0.3444,0.7581872 -1.75,0.7002924 -1.5532,-0.063979 -1.8692,-0.3799204 -0.8055,-0.8055551 z"
       id="path3719"
       inkscape:connector-curvature="0" />
    <path
       style="fill:#000000;fill-opacity:1;stroke-width:1.33333337"
       d="m 25.182697,1263.2738 c 26.869363,-5.8292 48.439276,-17.9383 66.961937,-37.5917 14.717176,-15.6156 24.510476,-32.9316 30.760136,-54.3886 L 126,1160.6667 l 0.68548,-526.00002 0.68548,-526.00001 3.02021,-11.333334 c 1.66112,-6.233334 5.98047,-17.416111 9.59857,-24.850617 C 156.14802,39.280434 183.5319,16.477528 220.21182,5.6807877 L 232.66667,2.0146995 698.66668,1.7724168 c 400.82952,-0.2083992 464.80902,0.017159 457.48402,1.6128433 -41.5744,9.0565389 -73.2252,34.0860969 -90.9603,71.9316309 -2.8266,6.031911 -6.4902,16.003211 -8.1412,22.158445 l -3.0019,11.191334 -0.3796,263.81626 -0.3796,263.81627 -2.9774,-0.84686 c -6.5611,-1.86618 -50.176,-2.44646 -67.64401,-0.89998 -78.7628,6.97304 -152.05618,40.92248 -208.39655,96.52913 l -13.06321,12.89309 -8.27012,-4.14448 c -24.62148,-12.33883 -40.21738,-29.74164 -47.09709,-52.5537 -5.15813,-17.1036 -1.34934,-50.3092 7.17059,-62.51425 2.011,-2.88083 8.15638,-9.09793 13.65638,-13.8158 5.5,-4.71785 13.46533,-11.55968 17.70073,-15.20405 6.51564,-5.60643 8.81832,-8.91782 14.96291,-21.51755 3.9942,-8.19027 9.26856,-21.34514 11.72081,-29.23304 l 4.45863,-14.34164 6.89694,-3.4369 c 18.87916,-9.40788 30.85944,-36.7118 29.3092,-66.79776 -0.47756,-9.26817 -1.31469,-12.43974 -5.54006,-20.98921 -2.73763,-5.5392 -6.14712,-10.69726 -7.57667,-11.46232 -2.25208,-1.20527 -2.59988,-2.85367 -2.60459,-12.34411 -0.0155,-31.25063 -4.41889,-66.45515 -12.1777,-97.35843 -8.7363,-34.79656 -17.06515,-54.05721 -32.88488,-76.04704 -24.84788,-34.53919 -72.83057,-61.03672 -128.46015,-70.93971 -25.538,-4.54619 -61.25909,-3.72621 -87.80518,2.01557 -58.66148,12.68816 -104.7228,51.68754 -128.09827,108.4587 -12.83555,31.17323 -22.5684,85.48323 -22.5684,125.93323 0,15.5186 -0.22793,17.03228 -3.14095,20.85873 -15.90565,20.89314 -16.53385,53.30338 -1.52942,78.90647 4.79416,8.18063 15.33754,18.56483 20.88684,20.57147 4.47641,1.61869 4.95625,2.39777 8.52932,13.84823 5.01085,16.05806 14.57841,38.67065 19.2085,45.39859 2.04435,2.9706 9.46444,10.38345 16.48908,16.47297 26.03099,22.56577 29.20334,28.42708 30.81145,56.92813 1.06209,18.82378 -0.24427,27.20975 -6.10463,39.18801 -11.33356,23.16518 -47.09744,47.04457 -87.15387,58.19225 -30.70653,8.54563 -67.41936,20.68672 -78.52031,25.96704 -29.27267,13.92392 -45.85705,29.78299 -52.76685,50.45908 -7.56347,22.63204 -11.62892,82.57515 -7.49727,110.54335 4.6372,31.39035 9.19441,39.40332 25.09435,44.1235 35.5583,10.55609 131.44889,22.82109 237.69376,30.40249 37.30886,2.6623 119.18033,3.043 150.61565,0.7004 14.44124,-1.0761 20.19798,-1.0837 20.85088,-0.027 0.49604,0.8026 1.29674,4.5325 1.77936,8.2886 1.48154,11.5309 8.65514,39.0444 14.40308,55.2414 7.00622,19.7427 23.58153,53.0084 35.33788,70.9212 27.17805,41.4103 65.07557,78.1801 106.95741,103.7747 l 11.2776,6.892 -415.27761,-0.106 c -357.292009,-0.091 -414.088492,-0.364 -406.761563,-1.9536 z m 957.483993,0.6032 c -33.32504,-3.4 -70.89008,-14.2772 -101.20663,-29.3048 -31.59185,-15.6599 -52.52243,-30.7772 -78.20048,-56.481 -34.18803,-34.2223 -56.13423,-69.7732 -71.2374,-115.3983 -16.02552,-48.4114 -19.10391,-98.56155 -9.20909,-150.02621 6.59681,-34.31121 23.397,-75.04643 43.13498,-104.58891 C 823.51922,721.90917 919.47965,672.57559 1022,676.44064 c 24.9427,0.94035 41.6469,3.30671 63.5447,9.00187 103.495,26.91694 184.9455,108.31456 211.0228,210.88598 6.9525,27.34643 9.2073,45.83792 9.1458,75.00487 -0.077,36.51454 -4.3674,62.19444 -16.0391,96.00004 -35.3385,102.3534 -123.5097,176.217 -231.6742,194.0803 -18.9161,3.124 -56.7366,4.3607 -75.33331,2.4633 z m -76.66667,-119.9992 c 4.50392,-1.2166 13.11138,-9.1973 55.3484,-51.3178 l 50.01508,-49.8771 47.9849,48.0234 c 56.0958,56.1408 57.8634,57.4221 73.3003,53.1366 4.1958,-1.1649 9.7616,-5.8669 26.4276,-22.3259 11.6117,-11.4677 22.2195,-22.6503 23.5727,-24.8503 3.5134,-5.7117 4.474,-12.6671 2.6869,-19.4544 -1.3801,-5.2414 -6.9922,-11.3372 -51.7517,-56.2123 l -50.2037,-50.33331 50.195,-50.33333 c 42.399,-42.5159 50.4187,-51.16167 51.6356,-55.66667 1.7954,-6.64635 1.7937,-8.04211 -0.017,-14.66667 -1.1614,-4.24798 -5.8405,-9.77393 -22.9926,-27.15415 -22.3236,-22.62049 -28.0774,-26.76334 -37.2439,-26.81657 -10.2763,-0.0597 -13.3747,2.51121 -64.3056,53.35582 l -49.3485,49.26484 -49.31821,-49.33826 c -53.31619,-53.33784 -54.58068,-54.34276 -66.66615,-52.98056 -3.45536,0.38948 -8.23994,2.20195 -11.16649,4.23004 -8.43491,5.8454 -42.67258,41.42963 -44.83007,46.59323 -2.56383,6.13612 -2.53251,14.29676 0.0789,20.54668 1.38563,3.31625 18.19871,21.11836 50.96743,53.96555 l 48.8997,49.0168 -48.9071,48.99166 c -32.9766,33.0336 -49.5782,50.6063 -50.96741,53.9488 -2.79118,6.7156 -2.59175,14.7939 0.51254,20.7626 3.49238,6.7148 43.59198,46.3392 49.42713,48.8414 5.61634,2.4083 9.58432,2.5631 16.66666,0.6499 z"
       id="path3717"
       inkscape:connector-curvature="0" />
  </g>
</svg>
